<svg xmlns="http://www.w3.org/2000/svg" version="1.1" xmlns:xlink="http://www.w3.org/1999/xlink" width="512" height="512" x="0" y="0" viewBox="0 0 32 32" style="enable-background:new 0 0 512 512" xml:space="preserve" class=""><g><path d="m28.841 23.459-8-12.444a1.047 1.047 0 0 0-.847-.459 1 1 0 0 0-.842.47l-4.444 7.111a1 1 0 0 0 1.696 1.06l3.608-5.773L26.169 23H5.804L14 9.887l1.374 2.199a1 1 0 1 0 1.696-1.06L14.848 7.47a1 1 0 0 0-1.696 0l-10 16A1 1 0 0 0 4 25h24a1 1 0 0 0 .841-1.541z" fill="#bf0000" opacity="1" data-original="#000000" class=""></path></g></svg>